<!DOCTYPE svg PUBLIC "-//W3C//DTD SVG 1.1//EN" "http://www.w3.org/Graphics/SVG/1.1/DTD/svg11.dtd">
<!-- Uploaded to: SVG Repo, www.svgrepo.com, Transformed by: SVG Repo Mixer Tools -->
<svg width="256px" height="256px" viewBox="0 0 1024 1024" fill="#409EFF" class="icon" version="1.1" xmlns="http://www.w3.org/2000/svg" stroke="#409EFF">
<g id="SVGRepo_bgCarrier" stroke-width="0"/>
<g id="SVGRepo_tracerCarrier" stroke-linecap="round" stroke-linejoin="round"/>
<g id="SVGRepo_iconCarrier">
<path d="M1004.76998 596.019514L974.358471 546.716006a90.543359 90.543359 0 0 0-25.342925-28.107608 88.469847 88.469847 0 0 0-46.078045-13.823414 401.800554 401.800554 0 0 0-105.518724 8.754829l-13.593023-77.641506a143.533111 143.533111 0 0 1-2.764683-58.058337 140.077257 140.077257 0 0 1 32.254632-46.078045 269.095784 269.095784 0 0 0 43.774143-60.592629A46.078045 46.078045 0 0 0 772.536633 230.390226a194.679741 194.679741 0 0 1-29.950729 39.627119 214.26291 214.26291 0 0 0-51.837801 82.24931 216.566812 216.566812 0 0 0 0 99.528578l9.215609 53.220142a271.399686 271.399686 0 0 0-84.783603-26.264486 257.345882 257.345882 0 0 1-48.381948-12.210682 30.87229 30.87229 0 0 1-20.96551-25.112535 46.078045 46.078045 0 0 0-13.132243-60.592629v-4.838195A276.468271 276.468271 0 0 0 490.538997 279.924124a209.424715 209.424715 0 0 0-50.22507-47.690776 1212.082977 1212.082977 0 0 1 215.645252-145.606623A46.078045 46.078045 0 0 0 613.797767 5.298975 1303.317507 1303.317507 0 0 0 353.687203 186.616083a671.817898 671.817898 0 0 0-221.635398-51.14663 46.078045 46.078045 0 1 0-5.068584 92.15609 577.588296 577.588296 0 0 1 153.67028 29.950729c-5.529365 5.759756-11.058731 11.289121-16.588096 17.279267l-2.764683 2.995073a195.601302 195.601302 0 0 1-24.651754 23.039023 195.370911 195.370911 0 0 1-34.558534 18.431218L94.267808 368.624361a46.078045 46.078045 0 1 0 38.244778 83.862042l108.053016-49.073118a271.860466 271.860466 0 0 0 51.37702-28.337998A270.938905 270.938905 0 0 0 329.265839 339.825583l2.534292-2.764683q19.122389-20.73512 38.935948-40.318289a146.988964 146.988964 0 0 1 46.078045 37.783997 196.753253 196.753253 0 0 1 26.034096 64.970043c2.073512 8.063658 3.455853 15.666535 4.838195 23.039023a320.012023 320.012023 0 0 1-57.597557 61.2838l-11.749901 9.215609c-32.715412 25.342925-75.567994 58.749508-85.474774 109.435357A2173.040609 2173.040609 0 0 0 55.33186 575.975564 46.078045 46.078045 0 0 0 6.719523 618.367366a46.078045 46.078045 0 0 0 43.543752 48.612337 2206.447191 2206.447191 0 0 1 261.723297 31.563461 67.273946 67.273946 0 0 1 7.602877 24.882145c0 12.210682-20.50473 27.186047-39.627119 41.700631a368.624361 368.624361 0 0 0-37.783997 31.33307c-71.88175 71.19058-58.288727 142.381159-34.328143 189.611156a46.078045 46.078045 0 1 0 82.01892-41.470241c-13.362633-26.264486-15.436145-50.225069 17.048877-82.24931a175.557352 175.557352 0 0 1 13.362633-11.749902 301.350415 301.350415 0 0 0 109.896138 59.671069l5.990145 1.843122a79.484628 79.484628 0 0 1 15.436146 5.298975 79.023847 79.023847 0 0 1 10.82834 15.666535l38.014387 63.818093a46.078045 46.078045 0 1 0 79.254238-46.078046l-38.014387-63.818092a134.778282 134.778282 0 0 0-35.940875-43.313363 133.856721 133.856721 0 0 0-44.234924-19.352778l-5.068585-1.382342a211.267837 211.267837 0 0 1-66.582775-34.328143 108.744187 108.744187 0 0 0 21.656681-58.058337 102.52365 102.52365 0 0 0 0-13.362633l88.009066 15.436145c49.073118 8.294048 104.597162 17.509657 144.224282 46.078045 8.294048 5.759756 16.588096 12.901853 25.342925 20.50473a309.183683 309.183683 0 0 0 49.533898 36.862436 313.330707 313.330707 0 0 0 94.459993 28.568388 203.204179 203.204179 0 0 1 73.724872 23.039023 46.078045 46.078045 0 1 0 52.298581-76.028775 277.850612 277.850612 0 0 0-107.822626-38.244777 237.762713 237.762713 0 0 1-69.117067-20.50473 233.385299 233.385299 0 0 1-34.558534-26.494876c-9.90678-8.524438-20.27434-17.509657-32.254632-25.803706-56.675996-40.087899-126.253844-51.837801-182.008278-61.053409-38.475168-6.450926-74.646433-12.901853-109.435357-19.122389l-20.965511-3.686244c5.068585-16.818486 29.259559-35.480095 51.14663-52.298581l12.671463-9.90678a408.942651 408.942651 0 0 0 38.935948-35.940875 122.33721 122.33721 0 0 0 46.078045 32.024241 333.605047 333.605047 0 0 0 66.352385 17.509658 171.410328 171.410328 0 0 1 61.744581 18.891998l8.294048 5.990146a128.557746 128.557746 0 0 0 42.161411 23.039023 132.013599 132.013599 0 0 0 76.028774-5.759756l4.838195-1.382341a311.948366 311.948366 0 0 1 104.136382-12.671463L926.667694 645.092632a46.078045 46.078045 0 1 0 77.871896-49.073118z"/>
</g>
</svg>